<svg width="66" height="66" viewBox="0 0 66 66" fill="none" xmlns="http://www.w3.org/2000/svg">
<path d="M33.4125 56.9249C46.3981 56.9249 56.925 46.398 56.925 33.4124C56.925 20.4268 46.3981 9.8999 33.4125 9.8999C20.4269 9.8999 9.90002 20.4268 9.90002 33.4124C9.90002 46.398 20.4269 56.9249 33.4125 56.9249Z" fill="#EEEBEA"/>
<path d="M33 4C38.0849 4 43.0804 5.33701 47.4856 7.87693C51.8907 10.4168 55.5505 14.0704 58.098 18.4711C60.6456 22.8719 61.9912 27.8651 62 32.95C62.0087 38.0349 60.6803 43.0327 58.148 47.4422C55.6157 51.8517 51.9685 55.5178 47.5722 58.0729C43.1758 60.628 38.185 61.9823 33.1001 61.9998C28.0152 62.0174 23.0151 60.6976 18.6012 58.1729C14.1874 55.6482 10.5149 52.0073 7.95225 47.6154L33 33V4Z" fill="#5DA283"/>
<path d="M33.4124 45.375C40.0191 45.375 45.375 40.0192 45.375 33.4125C45.375 26.8057 40.0191 21.45 33.4124 21.45C26.8057 21.45 21.45 26.8057 21.45 33.4125C21.45 40.0192 26.8057 45.375 33.4124 45.375Z" stroke="#0D0E10" stroke-width="2" stroke-miterlimit="10"/>
</svg>
