<svg width="66" height="66" viewBox="0 0 66 66" fill="none" xmlns="http://www.w3.org/2000/svg">
<path d="M33 0C38.7863 6.90006e-08 44.4708 1.52142 49.4836 4.41168C54.4963 7.30193 58.6609 11.4594 61.5598 16.4671C64.4587 21.4749 65.99 27.1568 66 32.9431C66.0099 38.7293 64.4983 44.4165 61.6167 49.4342C58.7351 54.4519 54.5848 58.6237 49.5821 61.5313C44.5794 64.4388 38.9001 65.9798 33.1139 65.9998C27.3276 66.0198 21.6379 64.518 16.6152 61.645C11.5925 58.7721 7.41355 54.629 4.49739 49.6313L33 33V0Z" fill="#EEEBEA"/>
<path d="M33.5 45C39.8513 45 45 39.8513 45 33.5C45 27.1487 39.8513 22 33.5 22C27.1487 22 22 27.1487 22 33.5C22 39.8513 27.1487 45 33.5 45Z" fill="#4573D2"/>
<rect x="14" y="26.3432" width="8" height="8" transform="rotate(45 14 26.3432)" stroke="#0D0E10" stroke-width="2"/>
<path d="M29.5001 13.3889H34.0001C37.9557 13.3889 41.8225 14.5619 45.1115 16.7595C48.4004 18.9572 50.9639 22.0807 52.4776 25.7352C53.9914 29.3898 54.3875 33.4111 53.6158 37.2907C52.8441 41.1703 50.9392 44.734 48.1422 47.5311C45.3451 50.3281 41.7815 52.2329 37.9019 53.0046C34.0222 53.7763 30.0009 53.3803 26.3464 51.8665C22.6919 50.3528 19.5683 47.7893 17.3707 44.5003C15.8928 42.2885 14.8783 39.8155 14.3723 37.2298" stroke="#0D0E10" stroke-width="2"/>
<path d="M26.3808 13.4391C30.1625 13.4375 33.2288 16.4959 33.2393 20.2697M26.3808 13.4759C30.1624 13.4774 33.2288 10.4191 33.2392 6.64526" stroke="#0D0E10" stroke-width="2" stroke-miterlimit="10"/>
</svg>
