<svg width="80" height="80" viewBox="0 0 80 80" fill="none" xmlns="http://www.w3.org/2000/svg">
<rect x="74" y="21.9995" width="39" height="69" transform="rotate(90 74 21.9995)" fill="#EEEBEA"/>
<g style="mix-blend-mode:multiply">
<path d="M37.3546 40.2046L34.401 33.4567L31.7389 31.9132L24.4499 32.7041L22.1554 28.6987L26.4908 22.7417V19.6675L22.1554 13.7105L24.4499 9.70509L31.7389 10.496L34.401 8.95249L37.3546 2.20459H41.9562L44.9098 8.95249L47.5719 10.496L54.8609 9.70509L57.1554 13.7105L52.8327 19.6675V22.7417L57.1554 28.6987L54.8609 32.7041L47.5719 31.9132L44.9098 33.4567L41.9562 40.2046H37.3546Z" fill="#5DA283"/>
</g>
<path d="M56 42.7638L39.5 33L23 42.7638M56 42.7638L39.5 52.2405M56 42.7638V61.5L39.5 71M39.5 52.2405L23 42.7638M39.5 52.2405V71M23 42.7638V61.5L39.5 71" stroke="#0D0E10" stroke-width="2"/>
<circle cx="39.5" cy="21.5" r="5.4375" stroke="#0D0E10" stroke-width="2.125"/>
</svg>
