<svg width="77" height="40" viewBox="0 0 77 40" fill="none" xmlns="http://www.w3.org/2000/svg">
<path d="M38.8712 23.7793H39.9974L39.9483 22.4372L38.8712 23.7793Z" fill="#E60013"/>
<path d="M45.2972 16.5439C42.295 19.467 37.8074 17.6006 38.2641 14.0124C38.6164 11.246 42.0077 8.49098 44.5742 6.99468C44.5882 6.98895 44.5857 6.97175 44.5755 6.96347C44.241 6.64433 43.5429 5.92007 43.0938 5.37608C41.8498 3.87978 39.6725 3.81672 38.3724 5.45825L30.9884 6.14684C30.9597 6.15002 30.9597 6.19207 30.9884 6.1927L38.905 6.6507C40.3108 6.73096 40.7675 8.00368 39.4126 9.02988C34.3848 12.8372 33.4892 16.87 34.6129 20.0652C34.6199 20.0862 34.588 20.1015 34.5753 20.0836C34.1122 19.4294 33.7676 18.6287 33.5797 17.7898C31.1642 16.2719 29.2042 13.3831 29.2042 9.8172C29.2042 4.6327 33.4293 0.364846 38.6559 0.364846C43.8824 0.364846 48.1076 4.6327 48.1076 9.8172C48.1076 12.6212 46.8795 15.0036 45.2972 16.5439ZM47.1445 25.4121H42.6002L44.2111 21.2143H46.2138L44.9398 24.5222H47.4859L47.1445 25.4121ZM40.0592 25.4121L40.0286 24.5859H38.2195L37.5539 25.4121H35.9015L39.2547 21.5258C39.4139 21.3404 39.6515 21.2143 39.87 21.2143H41.6606L42.0625 25.4121H40.0592ZM33.207 25.5541C32.6681 25.5541 32.1999 25.4981 31.8146 25.4121L32.1566 24.5203C33.0726 24.628 33.8574 24.5483 34.1657 23.7483L35.1378 21.2143H37.1392L36.0684 24.0069C35.5193 25.4344 34.1683 25.5541 33.207 25.5541V25.5541ZM53.2819 15.9763C53.3781 15.0463 53.3526 13.7137 53.2087 12.7289C53.2087 12.7098 53.1876 12.7098 53.1838 12.7289C52.8838 14.159 51.957 16.0954 49.9574 17.6764C49.939 17.6911 49.9179 17.6662 49.9351 17.6478C51.6869 15.7763 52.736 13.4691 52.8978 11.0912C52.5666 9.78344 52.0538 8.5171 51.4072 7.39981C51.3983 7.38452 51.3811 7.38962 51.3849 7.40873C51.7417 9.81019 51.1722 12.9812 48.8414 15.5546C48.8268 15.5724 48.8019 15.5514 48.814 15.5323C50.8212 12.6435 51.3435 9.12542 50.4689 5.96275C47.7942 2.3459 43.4996 -0.000152982 38.6559 -0.000152982C33.8128 -0.000152982 29.5182 2.3459 26.8441 5.96275C25.967 9.12542 26.4899 12.6435 28.4965 15.5323C28.5111 15.5514 28.485 15.5724 28.4716 15.5546C26.1402 12.9812 25.5727 9.81019 25.9287 7.40873C25.9313 7.38962 25.9135 7.38452 25.9052 7.39981C25.258 8.5171 24.7452 9.78344 24.4159 11.0912C24.5777 13.4691 25.6236 15.7763 27.3779 17.6478C27.3951 17.6662 27.3741 17.6911 27.3556 17.6764C25.3548 16.0954 24.428 14.159 24.1286 12.7289C24.1248 12.7098 24.1044 12.7098 24.1038 12.7289C23.9592 13.7137 23.9343 15.0463 24.0311 15.9763C24.535 17.558 25.6141 18.8842 26.7173 19.8403C26.7358 19.8562 26.7186 19.8836 26.6976 19.8709C25.4644 19.1033 24.7764 18.3529 24.305 17.6911C24.2961 17.6764 24.2815 17.6828 24.284 17.6987C25.6376 24.2916 31.5483 29.3672 38.6559 29.3672C45.7635 29.3672 51.6735 24.2916 53.0297 17.6987C53.0322 17.6828 53.0169 17.6764 53.008 17.6911C52.5379 18.3529 51.8474 19.1033 50.6148 19.8709C50.5932 19.8836 50.576 19.8562 50.5957 19.8403C51.6983 18.8842 52.7768 17.558 53.2819 15.9763" fill="#E60013"/>
<path d="M75.6692 38.5435C75.2463 39.6423 73.7895 39.9824 72.2154 39.9824C70.6402 39.9824 69.6312 39.641 69.8681 38.5435H71.8683C71.816 38.8371 71.9931 39.0244 72.5849 39.0244C73.176 39.0244 73.5582 38.8326 73.6672 38.5435C73.9436 37.8268 69.9847 38.5275 70.6153 36.8854C70.9676 35.9668 72.3575 35.5349 73.9239 35.5349C75.489 35.5349 76.3807 35.8738 76.1916 36.8847H74.2296C74.2608 36.6146 74.1774 36.4089 73.5888 36.4089C72.9983 36.4089 72.6836 36.6185 72.5811 36.8854C72.2963 37.6179 76.2973 36.9051 75.6692 38.5435Z" fill="black"/>
<path d="M40.657 39.8594H38.6562L40.2678 35.6641H42.268L40.657 39.8594Z" fill="black"/>
<path d="M55.7892 39.8594H53.7897L55.4 35.6641H57.3989L55.7892 39.8594Z" fill="black"/>
<path d="M68.6771 39.8594H63.815L65.424 35.6641H70.2894L69.9798 36.4693H67.1159L66.791 37.3165H69.1721L68.8638 38.1204H66.4827L66.1565 38.9701H69.0192L68.6771 39.8594Z" fill="black"/>
<path d="M28.9237 39.8594H27.3063L25.9489 37.3815L24.9972 39.8594H23.3837L24.9921 35.6641H26.8719L28.0714 37.8688L28.916 35.6641H30.5333L28.9237 39.8594Z" fill="black"/>
<path d="M62.5734 39.8594H60.9548L59.5986 37.3815L58.6469 39.8594H57.0322L58.6431 35.6641H60.5216L61.7198 37.8688L62.5645 35.6641H64.1843L62.5734 39.8594Z" fill="black"/>
<path d="M4.62938 38.4547C4.0822 39.8809 2.73178 40 1.77055 40C1.23165 40 0.765375 39.9452 0.38063 39.8592L0.721422 38.97C1.63869 39.077 2.4222 38.9961 2.72859 38.1967L3.70128 35.664H5.70335L4.62938 38.4547Z" fill="black"/>
<path d="M16.1102 37.0005C15.9911 37.3069 15.614 37.5312 15.249 37.5312H14.1393L14.5464 36.4693H15.6611C16.0229 36.4693 16.2261 36.6954 16.1102 37.0005ZM15.9656 35.6641H12.8558L11.2442 39.8594H13.245L13.831 38.3363H14.9419C16.7905 38.3363 17.7861 37.842 18.1084 37.0005C18.432 36.1604 17.8173 35.6641 15.9656 35.6641" fill="black"/>
<path d="M46.7618 37.0005C46.6434 37.3069 46.2656 37.5312 45.9032 37.5312H44.791L45.1993 36.4693H46.3128C46.6771 36.4693 46.8803 36.6954 46.7618 37.0005ZM46.6185 35.6641H43.5087L41.8984 39.8594H43.8992L44.4827 38.3363H45.0859L45.4828 39.8594H47.6676L47.1326 38.1841C48.0186 37.9771 48.5448 37.5687 48.7614 37.0005C49.0856 36.1604 48.4703 35.6641 46.6185 35.6641Z" fill="black"/>
<path d="M51.0019 38.9701L52.2734 35.6648H50.2726L48.6642 39.8594H53.204L53.5461 38.9701H51.0019Z" fill="black"/>
<path d="M7.55067 38.228L8.62655 36.8859L8.67687 38.228H7.55067ZM10.3388 35.6641H8.5482C8.33099 35.6641 8.09339 35.7915 7.93414 35.9743L4.58228 39.8594H6.23591L6.9003 39.0332H8.70617L8.73994 39.8594H10.7395L10.3388 35.6641Z" fill="black"/>
<path d="M19.6871 38.228L20.7642 36.8859L20.8133 38.228H19.6871ZM22.4752 35.6641H20.6846C20.4687 35.6641 20.2311 35.7915 20.0706 35.9743L16.72 39.8594H18.3711L19.0374 39.0332H20.8426L20.8738 39.8594H22.8759L22.4752 35.6641Z" fill="black"/>
<path d="M34.9599 38.228L36.0371 36.8859L36.0874 38.228H34.9599ZM37.7493 35.6641H35.9588C35.7403 35.6641 35.5039 35.7915 35.3434 35.9743L31.9916 39.8594H33.6452L34.3096 39.0332H36.1155L36.1479 39.8594H38.1475L37.7493 35.6641Z" fill="black"/>
</svg>
