<svg width="173" height="40" viewBox="0 0 173 40" fill="none" xmlns="http://www.w3.org/2000/svg">
<g clip-path="url(#clip0)">
<path fill-rule="evenodd" clip-rule="evenodd" d="M0 8.97736H11.801V16.1872H11.8917L20.9243 8.97736H34.1786L23.2851 17.8033L35.8581 29.9456H20.9243L11.8932 21.3668H11.801V29.9456H0V8.97604V8.97736ZM52.9697 8.39746C66.4055 8.39746 70.0367 10.9248 70.0367 19.5022C70.0367 28.0797 66.4055 30.6083 52.9697 30.6083C39.5339 30.6491 35.8581 28.1218 35.8581 19.5022C35.8581 10.9248 39.5339 8.39746 52.9697 8.39746ZM52.9697 26.2979C58.2357 26.2979 57.8727 21.0355 57.8727 19.2958C57.8727 17.5548 57.9174 12.7473 52.9697 12.7473C48.022 12.7473 48.0681 17.5548 48.0681 19.2958C48.022 21.0355 47.7052 26.2979 52.9697 26.2979V26.2979ZM95.501 22.073H86.7868V30.0705H74.666V9.10228H86.7853V16.3122H95.4996V9.10228H107.619V30.0679H95.501V22.073V22.073ZM113.383 9.10228H125.821V25.0553C125.821 25.0553 135.716 25.0974 137.033 25.0974C138.348 25.0974 139.121 24.0191 139.121 24.0191V30.0284H113.382V9.10228H113.383ZM168.079 16.0636C165.492 14.199 163.312 13.6178 160.953 13.5784C158.638 13.5363 156.504 14.2819 156.504 15.5245C156.504 16.5186 158.092 16.9341 163.631 17.9703C168.169 18.8395 171.211 20.9119 171.211 24.7647C171.211 29.1172 163.086 31.6024 155.869 31.6024C150.784 31.6024 146.881 30.774 143.386 29.3644V23.4813C145.566 25.5116 150.376 26.5885 154.098 26.5885C156.141 26.5885 157.185 26.2992 157.185 24.8488C157.185 23.9363 155.915 23.1078 152.011 22.4859C144.658 21.284 142.16 19.3786 142.16 16.1465C142.16 11.5047 148.606 8.76959 156.504 8.76959C160.772 8.76959 164.675 8.89451 168.125 10.3449V16.0636H168.079V16.0636ZM132.22 17.6797L133.083 16.3529C130.541 15.2352 129.77 12.3344 131.085 10.6763C132.493 8.89451 136.351 8.14894 138.485 10.884C140.255 13.2036 138.575 15.1931 137.803 15.773C136.942 16.3122 132.22 17.6797 132.22 17.6797ZM172.028 11.0918C172.028 11.8781 171.347 12.4593 170.53 12.4593C169.667 12.4593 169.032 11.8374 169.032 11.0918C169.032 10.3028 169.713 9.72425 170.53 9.72425C171.347 9.72425 172.028 10.3028 172.028 11.0918ZM169.214 11.0918C169.214 11.7545 169.758 12.2924 170.484 12.2924C171.211 12.2924 171.756 11.7532 171.756 11.0905C171.756 10.4277 171.211 9.88862 170.484 9.88862C169.758 9.9307 169.214 10.4277 169.214 11.0905V11.0918ZM170.167 11.9202H169.94V10.3028H170.621C171.028 10.3028 171.211 10.4698 171.211 10.7591C171.211 11.0484 170.984 11.1733 170.756 11.2154L171.302 11.9202H171.028L170.53 11.2154H170.167V11.9202ZM170.439 11.0076C170.712 11.0076 170.984 11.0076 170.984 10.7184C170.984 10.5106 170.802 10.4291 170.575 10.4291H170.167V10.9669H170.439V11.0076V11.0076Z" fill="#444444"/>
</g>
<defs>
<clipPath id="clip0">
<rect width="172.028" height="40" fill="white"/>
</clipPath>
</defs>
</svg>
