<svg width="80" height="80" viewBox="0 0 80 80" fill="none" xmlns="http://www.w3.org/2000/svg">
<g clip-path="url(#clip0)">
<path d="M32.6499 2L35.7445 10.6909C37.2826 11.321 38.0609 11.6545 39.5989 12.2846L47.9378 8.31899C49.8094 10.2091 49.8094 10.2091 51.681 12.0807L47.7154 20.4196C48.3455 21.9576 48.679 22.7359 49.3091 24.274L58 27.3686C58 30.0185 58 30.0185 58 32.6684L49.3091 35.7631C48.679 37.3011 48.3455 38.0794 47.7154 39.6175L51.681 47.9563C49.8094 49.8094 49.8094 49.8094 47.9378 51.681L39.5989 47.7154C38.0609 48.3455 37.2826 48.679 35.7445 49.3091L32.6499 58C30 58 30 58 27.3501 58L24.2555 49.3091C22.7174 48.679 21.9391 48.3455 20.4011 47.7154L12.0622 51.681C10.2091 49.8094 10.2091 49.8094 8.33753 47.9378L12.3031 39.5989C11.6731 38.0609 11.3395 37.2826 10.7095 35.7445L2 32.6499C2 30 2 30 2 27.3501L10.6909 24.2555C11.321 22.7174 11.6545 21.9391 12.2846 20.4011L8.31899 12.0622C10.1906 10.1906 10.1906 10.1906 12.0622 8.31899L20.4011 12.2846C21.9391 11.6545 22.7174 11.321 24.2555 10.6909L27.3686 2C30 2 30.0185 2 32.6499 2Z" fill="#EEEBEA"/>
<circle cx="58.5" cy="42.5" r="7.5" stroke="#0D0E10" stroke-width="2"/>
<circle cx="30" cy="64" r="4" stroke="#0D0E10" stroke-width="2"/>
<g style="mix-blend-mode:multiply">
<path fill-rule="evenodd" clip-rule="evenodd" d="M30.1587 15.7135C29.4693 17.4642 26.2731 21.2925 19 22.6052C18.9996 38.6869 24.7859 42.6255 30.1587 44.5947V44.5948C30.1587 44.5948 30.1588 44.5948 30.1588 44.5948C30.1588 44.5948 30.1589 44.5948 30.1589 44.5948V44.5947C35.5317 42.6255 41.318 38.6869 41.3176 22.6052C34.0445 21.2925 30.8483 17.4642 30.1589 15.7135V15.7129C30.1589 15.713 30.1588 15.7131 30.1588 15.7132C30.1588 15.7131 30.1587 15.713 30.1587 15.7129V15.7135Z" fill="#4573D2"/>
</g>
<path d="M54.1616 54.8511L54.0304 54.5512L53.7472 54.387L51.0851 52.8435L50.8015 52.6791L50.4756 52.7145L43.837 53.4348L42.1896 50.559L46.1439 45.1255L46.3354 44.8625V44.5371V41.4629V41.1375L46.1439 40.8745L42.1896 35.441L43.837 32.5652L50.4756 33.2855L50.8015 33.3209L51.0851 33.1565L53.7472 31.613L54.0304 31.4488L54.1616 31.1489L56.8531 25H60.1469L62.8384 31.1489L62.9696 31.4488L63.2528 31.613L65.9149 33.1565L66.1985 33.3209L66.5244 33.2855L73.163 32.5652L74.8109 35.4419L70.8679 40.8756L70.6773 41.1383V41.4629V44.5371V44.8617L70.8679 45.1244L74.8109 50.5581L73.163 53.4348L66.5244 52.7145L66.1985 52.6791L65.9149 52.8435L63.2528 54.387L62.9696 54.5512L62.8384 54.8511L60.1469 61H56.8531L54.1616 54.8511Z" stroke="#0D0E10" stroke-width="2"/>
<path d="M22.8375 70.2096L22.8764 69.8855L22.7165 69.6008L21.5473 67.5188L21.3834 67.2269L21.0768 67.0925L16.5023 65.0879L16.5333 62.7603L21.2056 60.6229L21.496 60.4901L21.6556 60.2135L22.8691 58.1117L23.0288 57.8351L22.9986 57.5173L22.5135 52.4022L24.5138 51.2116L28.5371 54.1709L28.8068 54.3693L29.1415 54.3653L31.5293 54.3368L31.8557 54.3329L32.117 54.1371L36.2257 51.0585L38.1569 52.1735L37.5452 57.2711L37.5063 57.5953L37.6661 57.8799L38.8353 59.962L38.9993 60.2539L39.3059 60.3883L43.8804 62.3929L43.8494 64.7215L39.1843 66.8633L38.8948 66.9963L38.7355 67.2721L37.522 69.374L37.3627 69.6498L37.3924 69.967L37.87 75.078L35.8689 76.2692L31.8456 73.3099L31.5759 73.1115L31.2412 73.1155L28.8534 73.144L28.527 73.1479L28.2657 73.3436L24.1569 76.4222L22.2257 75.3072L22.8375 70.2096Z" stroke="#0D0E10" stroke-width="2"/>
</g>
<defs>
<clipPath id="clip0">
<rect width="80" height="80" fill="white"/>
</clipPath>
</defs>
</svg>
